<svg width="693" height="540" viewBox="0 0 693 540" fill="none" xmlns="http://www.w3.org/2000/svg">
<g id="illustra">
<g id="Group 32">
<rect id="Rectangle 33" x="90.4915" y="65.0847" width="602.034" height="408.814" rx="17" fill="#F8F8FA"/>
<rect id="Rectangle 34" x="103.712" y="81.3559" width="575.593" height="376.271" rx="9" fill="#F0F0F2"/>
<path id="Union" fill-rule="evenodd" clip-rule="evenodd" d="M456.593 473.898H327.441L327.441 521.695L318.288 540H327.441H456.593H464.729L456.593 521.695V473.898Z" fill="url(#paint0_linear_617_1090)"/>
</g>
<rect id="Rectangle 31" x="122.017" y="100.678" width="258.305" height="332.542" rx="12" fill="#E9E9EA"/>
<rect id="Rectangle 32" x="397.61" y="255.254" width="258.305" height="178.983" rx="4" fill="#E9E9EA"/>
<rect id="Rectangle 33_2" x="397.61" y="102.712" width="258.305" height="27.4576" rx="4" fill="#E9E9EA"/>
<rect id="Rectangle 34_2" x="397.61" y="149.492" width="258.305" height="27.4576" rx="4" fill="#E9E9EA"/>
<g id="stamp" class="stamp">
<circle id="Ellipse 3" cx="111.339" cy="80.8475" r="61.5254" fill="#FFDD76"/>
<circle id="Ellipse 4" opacity="0.56" cx="111.339" cy="80.8475" r="34.0678" fill="#EECB64"/>
<g id="Group 3">
<text id="S" transform="translate(100.391 131.737) rotate(-164.246)" fill="#BB932C" xml:space="preserve" style="white-space: pre" font-family="Lato" font-size="9.12822" font-weight="800" letter-spacing="0em"><tspan x="0" y="9.03262">S</tspan></text>
<text id="E" transform="translate(90.498 128.472) rotate(-152.377)" fill="#BB932C" xml:space="preserve" style="white-space: pre" font-family="Lato" font-size="9.12822" font-weight="800" letter-spacing="0em"><tspan x="0" y="9.03262">E</tspan></text>
<text id="L" transform="translate(81.0134 122.927) rotate(-140.509)" fill="#BB932C" xml:space="preserve" style="white-space: pre" font-family="Lato" font-size="9.12822" font-weight="800" letter-spacing="0em"><tspan x="0" y="9.03262">L</tspan></text>
<text id="O" transform="translate(73.0486 115.83) rotate(-127.109)" fill="#BB932C" xml:space="preserve" style="white-space: pre" font-family="Lato" font-size="9.12822" font-weight="800" letter-spacing="0em"><tspan x="0" y="9.03262">O</tspan></text>
<text id="K" transform="translate(62.689 98.1165) rotate(-104.903)" fill="#BB932C" xml:space="preserve" style="white-space: pre" font-family="Lato" font-size="9.12822" font-weight="800" letter-spacing="0em"><tspan x="0" y="9.03262">K</tspan></text>
<text id="I" transform="translate(60.2209 86.3692) rotate(-93.8002)" fill="#BB932C" xml:space="preserve" style="white-space: pre" font-family="Lato" font-size="9.12822" font-weight="800" letter-spacing="0em"><tspan x="0" y="9.03262">I</tspan></text>
<text id="N" transform="translate(59.9215 78.2928) rotate(-82.3144)" fill="#BB932C" xml:space="preserve" style="white-space: pre" font-family="Lato" font-size="9.12822" font-weight="800" letter-spacing="0em"><tspan x="0" y="9.03262">N</tspan></text>
<text id="G" transform="translate(62.3187 65.3893) rotate(-67.7658)" fill="#BB932C" xml:space="preserve" style="white-space: pre" font-family="Lato" font-size="9.12822" font-weight="800" letter-spacing="0em"><tspan x="0" y="9.03262">G</tspan></text>
<text id="H" transform="translate(71.9653 47.9149) rotate(-45.5601)" fill="#BB932C" xml:space="preserve" style="white-space: pre" font-family="Lato" font-size="9.12822" font-weight="800" letter-spacing="0em"><tspan x="0" y="9.03262">H</tspan></text>
<text id="O_2" transform="translate(81.6436 38.9567) rotate(-30.6286)" fill="#BB932C" xml:space="preserve" style="white-space: pre" font-family="Lato" font-size="9.12822" font-weight="800" letter-spacing="0em"><tspan x="0" y="9.03262">O</tspan></text>
<text id="S_2" transform="translate(93.6251 32.7263) rotate(-17.2286)" fill="#BB932C" xml:space="preserve" style="white-space: pre" font-family="Lato" font-size="9.12822" font-weight="800" letter-spacing="0em"><tspan x="0" y="9.03262">S</tspan></text>
<text id="T" transform="translate(103.701 30.08) rotate(-5.36001)" fill="#BB932C" xml:space="preserve" style="white-space: pre" font-family="Lato" font-size="9.12822" font-weight="800" letter-spacing="0em"><tspan x="0" y="9.03262">T</tspan></text>
<text id="D" transform="translate(121.784 30.4023) rotate(15.6972)" fill="#BB932C" xml:space="preserve" style="white-space: pre" font-family="Lato" font-size="9.12822" font-weight="800" letter-spacing="0em"><tspan x="0" y="9.03262">D</tspan></text>
<text id="E_2" transform="translate(134.039 34.5491) rotate(29.0972)" fill="#BB932C" xml:space="preserve" style="white-space: pre" font-family="Lato" font-size="9.12822" font-weight="800" letter-spacing="0em"><tspan x="0" y="9.03262">E</tspan></text>
<text id="Q" transform="translate(148.826 45.0738) rotate(50.5372)" fill="#BB932C" xml:space="preserve" style="white-space: pre" font-family="Lato" font-size="9.12822" font-weight="800" letter-spacing="0em"><tspan x="0" y="9.03262">Q</tspan></text>
<text id="U" transform="translate(157.006 56.1304) rotate(65.4687)" fill="#BB932C" xml:space="preserve" style="white-space: pre" font-family="Lato" font-size="9.12822" font-weight="800" letter-spacing="0em"><tspan x="0" y="9.03262">U</tspan></text>
<text id="A" transform="translate(161.822 68.2718) rotate(79.6344)" fill="#BB932C" xml:space="preserve" style="white-space: pre" font-family="Lato" font-size="9.12822" font-weight="800" letter-spacing="0em"><tspan x="0" y="9.03262">A</tspan></text>
<text id="L_2" transform="translate(163.407 80.4147) rotate(92.2687)" fill="#BB932C" xml:space="preserve" style="white-space: pre" font-family="Lato" font-size="9.12822" font-weight="800" letter-spacing="0em"><tspan x="0" y="9.03262">L</tspan></text>
<text id="I_2" transform="translate(162.527 90.4909) rotate(102.223)" fill="#BB932C" xml:space="preserve" style="white-space: pre" font-family="Lato" font-size="9.12822" font-weight="800" letter-spacing="0em"><tspan x="0" y="9.03262">I</tspan></text>
<text id="D_2" transform="translate(160.586 98.3362) rotate(113.709)" fill="#BB932C" xml:space="preserve" style="white-space: pre" font-family="Lato" font-size="9.12822" font-weight="800" letter-spacing="0em"><tspan x="0" y="9.03262">D</tspan></text>
<text id="A_2" transform="translate(154.736 110.014) rotate(127.875)" fill="#BB932C" xml:space="preserve" style="white-space: pre" font-family="Lato" font-size="9.12822" font-weight="800" letter-spacing="0em"><tspan x="0" y="9.03262">A</tspan></text>
<text id="D_3" transform="translate(146.608 119.504) rotate(142.04)" fill="#BB932C" xml:space="preserve" style="white-space: pre" font-family="Lato" font-size="9.12822" font-weight="800" letter-spacing="0em"><tspan x="0" y="9.03262">D</tspan></text>
<text id="E_3" transform="translate(136.005 126.917) rotate(155.44)" fill="#BB932C" xml:space="preserve" style="white-space: pre" font-family="Lato" font-size="9.12822" font-weight="800" letter-spacing="0em"><tspan x="0" y="9.03262">E</tspan></text>
</g>
<path id="Vector" d="M119.152 73.8489C119.615 73.8489 119.989 74.2136 119.989 74.6542C119.989 75.105 119.621 75.4697 119.152 75.4697C118.678 75.4697 118.304 75.105 118.304 74.6542C118.304 74.2085 118.678 73.8489 119.152 73.8489ZM111.349 68.1356C111.945 68.1356 112.419 68.5965 112.419 69.1638C112.419 69.7361 111.94 70.192 111.349 70.192C110.765 70.192 110.285 69.7361 110.285 69.1638C110.28 68.5965 110.765 68.1356 111.349 68.1356ZM103.526 73.8489C103.985 73.8489 104.369 74.2136 104.369 74.6542C104.369 75.105 103.985 75.4697 103.526 75.4697C103.057 75.4697 102.678 75.105 102.678 74.6542C102.678 74.2085 103.057 73.8489 103.526 73.8489ZM96.5932 74.9227C96.5932 74.482 96.9725 74.1173 97.4414 74.1173C97.905 74.1173 98.2843 74.482 98.2843 74.9227C98.2843 75.3735 97.905 75.7381 97.4414 75.7381C96.9672 75.7381 96.5932 75.3735 96.5932 74.9227ZM119.958 90.067C119.763 90.5026 119.542 90.5938 119.094 90.4368C118.493 90.2139 115.585 89.0844 111.265 89.049C106.945 89.0844 104.037 90.1886 103.431 90.4114C102.989 90.5583 102.768 90.5077 102.583 90.067C102.33 89.4795 102.43 89.2465 102.862 89.0439C103.99 88.5425 107.093 87.2053 111.065 87.2053H111.234H111.244H111.27H111.286H111.307H111.323H111.486C115.448 87.2053 118.546 88.5475 119.689 89.0439C120.105 89.2465 120.205 89.4744 119.958 90.067ZM124.668 77.1969L120.874 87.3167C120.553 88.1373 120.232 88.036 119.658 87.7219C119.104 87.4028 115.727 86.0353 111.56 86.0353H111.097C106.935 86.0353 103.563 87.4028 102.994 87.7219C102.441 88.036 102.109 88.1879 101.788 87.3724L97.9893 77.2222C97.9893 77.2222 97.6785 76.4321 98.0367 76.3156C98.3686 76.2143 98.6057 76.6549 98.7374 76.9082C99.0482 77.4754 100.671 80.484 101.403 81.2742C102.056 81.963 102.641 81.9833 102.989 81.9022C103.747 81.7402 104.079 80.9146 103.842 78.6556C103.605 76.4017 103.489 76.118 103.89 76.042C104.243 75.9762 104.359 76.5384 104.453 76.8069C104.548 77.0753 105.328 80.2814 106.656 80.7576C107.699 81.1324 108.536 80.793 109.089 79.5977C109.706 78.2504 110.317 75.723 110.586 73.4133C110.828 71.281 110.86 70.4959 111.265 70.4959H111.381C111.792 70.4959 111.818 71.3924 112.071 73.5247C112.345 75.8394 112.956 78.3112 113.567 79.6585C114.11 80.8589 114.953 81.1628 116.001 80.793C117.324 80.3169 118.114 77.0956 118.203 76.8271C118.304 76.5536 118.414 75.9863 118.767 76.0522C119.178 76.1282 119.046 76.4118 118.82 78.6657C118.583 80.9247 118.915 81.7452 119.673 81.9124C120.021 81.9934 120.601 81.9681 121.259 81.2843C121.991 80.4942 123.609 77.4856 123.919 76.9183C124.056 76.66 124.294 76.2193 124.62 76.3257C124.989 76.4371 124.668 77.1969 124.668 77.1969ZM125.242 75.7381C124.768 75.7381 124.388 75.3735 124.388 74.9227C124.388 74.482 124.768 74.1173 125.242 74.1173C125.705 74.1173 126.085 74.482 126.085 74.9227C126.085 75.3735 125.705 75.7381 125.242 75.7381Z" fill="#FCFCFC"/>
</g>
<path id="Vector_2" opacity="0.1" d="M179.265 468.035L129.696 385.935L180.996 370.736L218.5 335.983L265.615 414.947L243.185 447.18L179.265 468.035Z" fill="url(#paint1_linear_617_1090)"/>
<g id="mail" class="mail">
<g id="Group">
<path id="Vector_3" d="M259.731 407.95L259.765 407.997C259.837 408.14 259.853 408.328 259.751 408.526L259.735 408.567L252.595 422.777L249.908 428.105L248.028 431.83L247.153 433.577L246.43 435.013L244.551 438.738L241.753 444.283L233.848 460.013C233.79 460.147 233.68 460.256 233.556 460.326C233.434 460.407 233.278 460.45 233.138 460.442L228.405 460.381L203.555 460.078L196.261 459.989L192.704 459.946L187.324 459.881L175.546 459.739L175.496 459.733C175.277 459.732 175.109 459.627 175.019 459.505L174.985 459.458C174.959 459.391 174.934 459.333 174.929 459.274C174.926 459.235 174.922 459.195 174.929 459.155C174.942 459.074 174.965 458.992 174.997 458.91L181.865 445.241L187.594 433.849L200.89 407.414C201.026 407.154 201.31 406.98 201.599 406.985L231.183 407.349L243.927 407.507L259.222 407.696C259.311 407.698 259.393 407.721 259.475 407.743C259.506 407.761 259.547 407.777 259.579 407.794C259.653 407.848 259.687 407.894 259.731 407.95Z" fill="url(#paint2_linear_617_1090)"/>
<g id="Group_2">
<g id="Group_3">
<g id="Vector_4" filter="url(#filter0_d_617_1090)">
<path d="M241.764 444.302L233.86 460.032C233.802 460.166 233.691 460.275 233.568 460.345C233.446 460.426 233.29 460.469 233.15 460.461L228.417 460.4L203.567 460.097L196.273 460.008L192.716 459.965L187.335 459.9L185.204 457.227C183.934 455.644 184.202 453.321 185.795 452.06L220.994 424.071C222.577 422.8 224.89 423.069 226.161 424.662L230.369 429.954L233.192 433.503L235.177 435.99L236.863 438.115L238.839 440.602L241.764 444.302Z" fill="#FCFCFC"/>
</g>
<path id="Vector_5" opacity="0.5" d="M225.52 429.713L190.936 457.212C190.797 457.323 190.586 457.302 190.474 457.162L189.035 455.355C188.923 455.215 188.945 455.004 189.085 454.892L223.669 427.394C223.808 427.283 224.019 427.304 224.131 427.444L225.57 429.251C225.682 429.391 225.659 429.592 225.52 429.713Z" fill="#4DCBD3"/>
<path id="Vector_6" d="M212.869 446.378C212.98 446.518 212.958 446.729 212.809 446.841L196.253 460.009L192.696 459.967L192.45 459.65C192.328 459.511 192.35 459.3 192.5 459.187L210.966 444.511C211.105 444.39 211.307 444.422 211.429 444.571L212.869 446.378Z" fill="#4DCBD3"/>
</g>
<g id="Group_4">
<g id="Group_5">
<g id="Group_6">
<g id="Vector_7" filter="url(#filter1_d_617_1090)">
<path d="M252.586 422.788L249.899 428.116L248.019 431.84L247.144 433.588L246.421 435.024L244.542 438.749L241.744 444.294L233.839 460.024C233.781 460.158 233.671 460.267 233.547 460.337C233.425 460.417 233.269 460.461 233.129 460.453L228.396 460.392L220.812 436.886C220.188 434.959 221.244 432.888 223.191 432.263L230.349 429.955L252.586 422.788Z" fill="#FCFCFC"/>
</g>
<g id="Group_7">
<path id="Vector_8" d="M249.899 428.116L248.019 431.841L235.167 435.991L226.2 438.892C226.025 438.947 225.837 438.843 225.773 438.67L225.065 436.461C225.011 436.297 225.105 436.109 225.279 436.055L233.172 433.505L249.899 428.116Z" fill="#4DCBD3"/>
</g>
<g id="Group_8" opacity="0.5">
<path id="Vector_9" opacity="0.5" d="M246.432 435.033L244.553 438.758L238.829 440.603L227.885 444.132C227.71 444.187 227.523 444.093 227.468 443.919L226.761 441.71C226.706 441.536 226.799 441.349 226.974 441.294L236.852 438.106L246.432 435.033Z" fill="#4DCBD3"/>
</g>
</g>
</g>
</g>
</g>
<g id="Group_9">
<g id="Group_10">
<g id="Vector_10" filter="url(#filter2_d_617_1090)">
<path d="M188.734 463.084L235.817 464.044L255.427 423.529C255.427 423.529 260.257 431.903 260.794 432.355C261.33 432.806 240.419 471.611 240.419 471.611L194.204 472.07L188.734 463.084Z" fill="#606060"/>
</g>
</g>
</g>
<path id="Vector_11" d="M259.765 407.997L290.833 459.096C291.181 459.673 291.306 460.319 291.249 460.931C291.158 461.835 290.664 462.684 289.831 463.183L210.185 511.615C209.352 512.125 208.371 512.169 207.536 511.833C206.969 511.603 206.445 511.19 206.097 510.613L175.029 459.514C175.12 459.646 175.288 459.741 175.507 459.742L175.557 459.748L203.555 460.078L233.138 460.442C233.278 460.45 233.434 460.407 233.556 460.326C233.679 460.246 233.789 460.137 233.848 460.013L247.143 433.578L259.724 408.558L259.74 408.517C259.853 408.328 259.837 408.14 259.765 407.997Z" fill="#FFDD76"/>
<path id="Vector_12" opacity="0.8" d="M250.052 487.455L208.28 512.854C207.703 513.202 207.085 512.728 207.364 512.156L219.971 487.095L233.267 460.66C233.394 460.4 233.687 460.225 233.976 460.23L263.56 460.594L291.608 460.93C292.245 460.935 292.391 461.709 291.815 462.067L250.052 487.455Z" fill="url(#paint3_linear_617_1090)"/>
</g>
</g>
<path id="Vector_13" d="M173.75 336.244C173.75 336.244 175.417 341.367 180.428 341.635C185.44 341.904 186.751 340.636 186.751 340.636C186.751 340.636 184.03 349.77 176.582 356.827C176.582 356.827 169.541 361.599 160.826 352.238C160.834 352.244 170.32 346.257 173.75 336.244Z" fill="url(#paint4_linear_617_1090)"/>
<path id="Vector_14" d="M44.1392 255.254C44.1392 255.254 41.363 257.654 43.5087 266.603C43.5087 266.603 48.2986 272.156 57.1358 269.003C57.1358 269.003 54.2375 262.19 56.7596 257.776C56.7596 257.776 50.8308 259.536 44.1392 255.254Z" fill="url(#paint5_linear_617_1090)"/>
<g id="form">
<rect id="box" class="box" x="306.085" width="278.644" height="358.983" rx="12" fill="#FCFCFC"/>
<path id="Vector 2" d="M109.814 255.254L109.59 255.97L109.814 255.254ZM379.814 513.051L379.951 513.788L379.814 513.051ZM655.915 235.424L656.649 235.269L655.915 235.424ZM506.452 127.559C506.134 127.825 506.091 128.298 506.356 128.616L510.677 133.801C510.942 134.119 511.415 134.162 511.734 133.897C512.052 133.632 512.095 133.159 511.83 132.841L507.989 128.232L512.598 124.391C512.916 124.125 512.959 123.652 512.694 123.334C512.429 123.016 511.956 122.973 511.638 123.238L506.452 127.559ZM1.72511 327.649C1.84625 327.191 1.97241 326.727 2.1036 326.258L0.65901 325.854C0.525914 326.33 0.39788 326.801 0.274889 327.266L1.72511 327.649ZM2.9329 323.442C3.21636 322.525 3.5177 321.592 3.83705 320.644L2.41563 320.165C2.09227 321.124 1.78704 322.07 1.4998 322.999L2.9329 323.442ZM4.81156 317.865C5.13988 316.963 5.48376 316.051 5.84332 315.129L4.446 314.584C4.08225 315.516 3.73431 316.439 3.40207 317.351L4.81156 317.865ZM6.93984 312.411C7.31213 311.517 7.69877 310.617 8.09986 309.711L6.72832 309.104C6.32271 310.02 5.93168 310.93 5.55514 311.834L6.93984 312.411ZM9.32213 307.032C9.73345 306.156 10.1581 305.276 10.5961 304.395L9.25276 303.727C8.80977 304.619 8.38034 305.508 7.96439 306.394L9.32213 307.032ZM11.9304 301.782C12.3828 300.92 12.848 300.057 13.3261 299.194L12.014 298.467C11.5304 299.34 11.0598 300.213 10.6022 301.085L11.9304 301.782ZM14.7779 296.643C15.2683 295.803 15.771 294.965 16.286 294.129L15.009 293.343C14.4877 294.189 13.979 295.037 13.4828 295.886L14.7779 296.643ZM17.8564 291.647C18.3874 290.83 18.9305 290.016 19.4856 289.206L18.2482 288.358C17.686 289.178 17.1362 290.003 16.5985 290.83L17.8564 291.647ZM21.1722 286.809C21.7438 286.019 22.3272 285.233 22.9224 284.454L21.7302 283.544C21.1269 284.334 20.5358 285.13 19.9567 285.93L21.1722 286.809ZM24.7334 282.147C25.3455 281.389 25.9694 280.637 26.6049 279.893L25.4644 278.919C24.8197 279.674 24.1869 280.436 23.5662 281.205L24.7334 282.147ZM28.5411 277.692C29.1958 276.969 29.862 276.255 30.5399 275.55L29.4587 274.51C28.7703 275.226 28.0938 275.951 27.4293 276.685L28.5411 277.692ZM32.6017 273.471C33.2993 272.789 34.0085 272.118 34.7293 271.458L33.7161 270.352C32.9832 271.023 32.2623 271.705 31.5534 272.398L32.6017 273.471ZM36.9197 269.517C37.6596 268.884 38.411 268.262 39.174 267.653L38.2383 266.48C37.4615 267.1 36.6968 267.733 35.944 268.378L36.9197 269.517ZM41.4937 265.868C42.2754 265.289 43.0686 264.723 43.8734 264.172L43.0255 262.934C42.2052 263.496 41.3969 264.073 40.6006 264.663L41.4937 265.868ZM46.3152 262.566C47.1386 262.046 47.9735 261.542 48.8199 261.054L48.0702 259.755C47.2066 260.253 46.3549 260.767 45.5151 261.297L46.3152 262.566ZM51.3757 259.647C52.2358 259.195 53.1072 258.761 53.99 258.343L53.3484 256.987C52.4468 257.414 51.5569 257.858 50.6789 258.318L51.3757 259.647ZM56.657 257.149C57.5487 256.772 58.4514 256.412 59.3654 256.07L58.8404 254.665C57.9064 255.014 56.9839 255.382 56.0729 255.767L56.657 257.149ZM62.1261 255.106C63.0455 254.807 63.9757 254.526 64.9169 254.264L64.5148 252.819C63.5527 253.087 62.6018 253.374 61.662 253.68L62.1261 255.106ZM67.7436 253.543C68.6879 253.324 69.6428 253.123 70.6084 252.943L70.3323 251.468C69.3455 251.653 68.3694 251.858 67.4042 252.082L67.7436 253.543ZM73.4777 252.468C74.4373 252.33 75.4072 252.212 76.3872 252.113L76.2369 250.621C75.2358 250.722 74.2451 250.843 73.2645 250.983L73.4777 252.468ZM79.2872 251.881C80.2517 251.824 81.2259 251.786 82.2097 251.768L82.1816 250.268C81.1776 250.287 80.1832 250.326 79.1984 250.384L79.2872 251.881ZM85.1305 251.77C86.0936 251.79 87.0657 251.829 88.0468 251.886L88.1347 250.389C87.1347 250.33 86.1436 250.291 85.1613 250.271L85.1305 251.77ZM90.9691 252.113C91.9258 252.204 92.8908 252.314 93.8642 252.443L94.0604 250.956C93.0696 250.825 92.0869 250.713 91.1125 250.619L90.9691 252.113ZM96.7699 252.877C97.7169 253.036 98.6717 253.211 99.6341 253.405L99.9297 251.934C98.9514 251.738 97.9805 251.559 97.0172 251.398L96.7699 252.877ZM102.507 254.03C103.443 254.249 104.386 254.485 105.336 254.738L105.722 253.289C104.758 253.032 103.8 252.792 102.849 252.57L102.507 254.03ZM108.162 255.534C108.636 255.675 109.112 255.821 109.59 255.97L110.038 254.538C109.553 254.387 109.07 254.24 108.589 254.096L108.162 255.534ZM109.59 255.97C110.064 256.118 110.534 256.275 111.002 256.439L111.5 255.024C111.016 254.854 110.528 254.692 110.038 254.538L109.59 255.97ZM113.766 257.522C114.675 257.915 115.571 258.339 116.455 258.794L117.141 257.46C116.228 256.99 115.301 256.551 114.361 256.145L113.766 257.522ZM119.035 260.227C119.881 260.733 120.716 261.267 121.54 261.83L122.386 260.591C121.537 260.012 120.677 259.461 119.804 258.94L119.035 260.227ZM123.973 263.595C124.743 264.187 125.504 264.804 126.256 265.446L127.23 264.305C126.459 263.647 125.678 263.014 124.887 262.406L123.973 263.595ZM128.486 267.445C129.211 268.126 129.927 268.83 130.636 269.558L131.71 268.51C130.987 267.768 130.254 267.048 129.513 266.352L128.486 267.445ZM132.651 271.707C133.316 272.444 133.974 273.201 134.625 273.977L135.774 273.013C135.112 272.224 134.442 271.453 133.765 270.703L132.651 271.707ZM136.534 276.332C137.134 277.098 137.729 277.88 138.319 278.679L139.526 277.788C138.928 276.978 138.324 276.184 137.714 275.407L136.534 276.332ZM140.073 281.123C140.652 281.953 141.226 282.798 141.795 283.659L143.046 282.831C142.47 281.961 141.889 281.105 141.303 280.265L140.073 281.123ZM143.393 286.131C143.921 286.968 144.445 287.818 144.966 288.681L146.25 287.906C145.725 287.035 145.195 286.176 144.661 285.33L143.393 286.131ZM146.518 291.307C147.015 292.164 147.508 293.034 147.999 293.914L149.309 293.184C148.815 292.297 148.317 291.42 147.816 290.555L146.518 291.307ZM149.429 296.527C149.903 297.408 150.375 298.3 150.844 299.201L152.174 298.508C151.702 297.601 151.228 296.704 150.75 295.816L149.429 296.527ZM152.243 301.933C152.685 302.808 153.124 303.691 153.562 304.583L154.909 303.922C154.469 303.025 154.027 302.137 153.583 301.257L152.243 301.933ZM154.87 307.281C155.304 308.189 155.736 309.105 156.167 310.028L157.526 309.393C157.093 308.466 156.659 307.546 156.223 306.634L154.87 307.281ZM157.444 312.793C157.854 313.691 158.263 314.594 158.67 315.505L160.039 314.892C159.63 313.978 159.22 313.071 158.809 312.17L157.444 312.793ZM159.89 318.254C160.296 319.177 160.701 320.106 161.105 321.04L162.481 320.445C162.076 319.508 161.67 318.576 161.263 317.651L159.89 318.254ZM162.304 323.835C162.692 324.746 163.08 325.662 163.467 326.584L164.85 326.002C164.462 325.079 164.073 324.161 163.684 323.247L162.304 323.835ZM164.628 329.362C165.014 330.292 165.401 331.228 165.787 332.167L167.174 331.597C166.787 330.656 166.4 329.719 166.013 328.786L164.628 329.362ZM166.941 334.987C167.315 335.907 167.69 336.83 168.065 337.757L169.455 337.195C169.08 336.267 168.705 335.342 168.33 334.422L166.941 334.987ZM169.19 340.549C169.565 341.484 169.941 342.421 170.317 343.362L171.71 342.806C171.333 341.864 170.957 340.925 170.582 339.99L169.19 340.549ZM171.446 346.195C171.815 347.121 172.185 348.051 172.555 348.983L173.949 348.429C173.579 347.497 173.209 346.567 172.84 345.64L171.446 346.195ZM173.665 351.78C174.035 352.715 174.407 353.652 174.779 354.592L176.174 354.039C175.801 353.1 175.43 352.162 175.059 351.227L173.665 351.78ZM175.899 357.417C176.27 358.351 176.641 359.288 177.014 360.226L178.408 359.672C178.035 358.734 177.664 357.798 177.293 356.864L175.899 357.417ZM178.126 363.022C178.498 363.956 178.871 364.891 179.246 365.827L180.638 365.27C180.264 364.335 179.891 363.4 179.52 362.467L178.126 363.022ZM180.373 368.641C180.75 369.579 181.128 370.518 181.508 371.458L182.899 370.896C182.519 369.957 182.142 369.019 181.765 368.082L180.373 368.641ZM182.639 374.248C183.018 375.179 183.398 376.111 183.78 377.043L185.168 376.474C184.787 375.543 184.407 374.613 184.029 373.683L182.639 374.248ZM184.932 379.841C185.318 380.775 185.705 381.709 186.095 382.642L187.479 382.065C187.09 381.133 186.703 380.2 186.318 379.269L184.932 379.841ZM187.264 385.431C187.654 386.358 188.047 387.285 188.442 388.211L189.822 387.623C189.428 386.699 189.036 385.773 188.646 384.848L187.264 385.431ZM189.633 390.991C190.032 391.917 190.434 392.843 190.838 393.769L192.213 393.169C191.809 392.245 191.409 391.322 191.01 390.397L189.633 390.991ZM192.057 396.542C192.464 397.464 192.874 398.384 193.287 399.304L194.655 398.69C194.244 397.773 193.835 396.855 193.428 395.936L192.057 396.542ZM194.533 402.061C194.951 402.979 195.372 403.895 195.795 404.811L197.157 404.181C196.734 403.268 196.315 402.354 195.898 401.439L194.533 402.061ZM197.074 407.554C197.504 408.467 197.936 409.379 198.372 410.29L199.725 409.642C199.291 408.735 198.86 407.826 198.432 406.915L197.074 407.554ZM199.688 413.017C200.13 413.925 200.575 414.83 201.023 415.734L202.367 415.067C201.92 414.167 201.477 413.265 201.037 412.36L199.688 413.017ZM202.378 418.439C202.833 419.339 203.292 420.237 203.753 421.132L205.086 420.444C204.626 419.552 204.17 418.658 203.717 417.762L202.378 418.439ZM205.156 423.822C205.627 424.717 206.102 425.609 206.58 426.498L207.901 425.787C207.425 424.902 206.952 424.014 206.483 423.123L205.156 423.822ZM208.027 429.157C208.512 430.04 209.002 430.921 209.496 431.798L210.803 431.063C210.312 430.19 209.824 429.313 209.341 428.434L208.027 429.157ZM210.996 434.432C211.501 435.31 212.011 436.184 212.525 437.055L213.817 436.292C213.305 435.426 212.798 434.556 212.295 433.683L210.996 434.432ZM214.079 439.656C214.602 440.52 215.129 441.379 215.66 442.235L216.935 441.444C216.406 440.593 215.882 439.738 215.363 438.879L214.079 439.656ZM217.269 444.793C217.814 445.648 218.364 446.5 218.919 447.347L220.174 446.525C219.623 445.684 219.076 444.837 218.534 443.987L217.269 444.793ZM220.598 449.876C221.163 450.714 221.732 451.548 222.307 452.377L223.54 451.522C222.969 450.699 222.403 449.871 221.842 449.038L220.598 449.876ZM224.045 454.849C224.633 455.674 225.227 456.493 225.825 457.307L227.034 456.419C226.439 455.61 225.85 454.797 225.266 453.978L224.045 454.849ZM227.644 459.742C228.256 460.549 228.873 461.35 229.495 462.145L230.676 461.22C230.058 460.431 229.446 459.636 228.839 458.836L227.644 459.742ZM231.38 464.514C232.016 465.299 232.657 466.078 233.304 466.852L234.454 465.89C233.813 465.123 233.177 464.349 232.547 463.57L231.38 464.514ZM235.274 469.168C235.937 469.934 236.607 470.694 237.282 471.447L238.398 470.445C237.729 469.699 237.066 468.946 236.409 468.187L235.274 469.168ZM239.326 473.686C240.014 474.425 240.708 475.158 241.408 475.884L242.488 474.843C241.794 474.123 241.106 473.397 240.425 472.664L239.326 473.686ZM243.539 478.05C244.256 478.766 244.98 479.474 245.71 480.174L246.749 479.092C246.025 478.398 245.308 477.697 244.598 476.988L243.539 478.05ZM247.922 482.254C248.666 482.939 249.417 483.617 250.175 484.287L251.169 483.163C250.418 482.5 249.675 481.829 248.938 481.15L247.922 482.254ZM252.47 486.272C253.241 486.926 254.02 487.571 254.806 488.208L255.751 487.043C254.973 486.413 254.203 485.774 253.439 485.127L252.47 486.272ZM257.186 490.095C257.987 490.715 258.795 491.327 259.611 491.93L260.503 490.724C259.696 490.128 258.897 489.523 258.105 488.909L257.186 490.095ZM262.075 493.71C262.899 494.291 263.73 494.863 264.569 495.426L265.405 494.18C264.576 493.624 263.754 493.058 262.94 492.484L262.075 493.71ZM267.108 497.087C267.962 497.632 268.823 498.167 269.693 498.693L270.469 497.41C269.61 496.89 268.758 496.361 267.914 495.822L267.108 497.087ZM272.325 500.243C273.197 500.742 274.076 501.232 274.963 501.712L275.678 500.393C274.801 499.919 273.932 499.435 273.071 498.941L272.325 500.243ZM277.641 503.121C278.541 503.581 279.449 504.031 280.365 504.471L281.015 503.119C280.11 502.684 279.212 502.239 278.323 501.785L277.641 503.121ZM283.138 505.762C284.059 506.178 284.988 506.584 285.926 506.979L286.509 505.597C285.583 505.206 284.665 504.805 283.754 504.395L283.138 505.762ZM288.71 508.116C289.646 508.485 290.589 508.844 291.541 509.193L292.057 507.785C291.117 507.44 290.185 507.085 289.26 506.72L288.71 508.116ZM294.419 510.211C295.387 510.54 296.362 510.858 297.346 511.167L297.795 509.736C296.822 509.431 295.858 509.116 294.902 508.79L294.419 510.211ZM300.222 512.033C301.18 512.309 302.146 512.576 303.119 512.833L303.502 511.382C302.539 511.128 301.585 510.865 300.638 510.591L300.222 512.033ZM306.062 513.574C307.05 513.811 308.047 514.038 309.051 514.255L309.368 512.789C308.374 512.574 307.389 512.35 306.411 512.115L306.062 513.574ZM312.085 514.875C313.051 515.061 314.024 515.238 315.005 515.406L315.258 513.927C314.288 513.761 313.325 513.586 312.369 513.402L312.085 514.875ZM317.968 515.881C318.963 516.029 319.965 516.169 320.975 516.298L321.166 514.811C320.166 514.682 319.175 514.544 318.19 514.397L317.968 515.881ZM324.025 516.658C325.049 516.769 326.081 516.869 327.12 516.96L327.25 515.466C326.221 515.376 325.2 515.276 324.186 515.167L324.025 516.658ZM330.07 517.189C331.058 517.257 332.052 517.315 333.053 517.365L333.127 515.867C332.136 515.818 331.151 515.76 330.173 515.693L330.07 517.189ZM336.075 517.488C337.09 517.52 338.111 517.542 339.138 517.556L339.158 516.056C338.139 516.043 337.128 516.02 336.122 515.988L336.075 517.488ZM342.242 517.57C343.242 517.566 344.248 517.553 345.261 517.531L345.229 516.031C344.225 516.053 343.227 516.066 342.235 516.07L342.242 517.57ZM348.221 517.444C349.214 517.407 350.213 517.362 351.218 517.309L351.138 515.811C350.141 515.864 349.15 515.909 348.165 515.945L348.221 517.444ZM354.251 517.124C355.268 517.054 356.292 516.975 357.321 516.889L357.195 515.394C356.173 515.48 355.158 515.558 354.148 515.627L354.251 517.124ZM360.428 516.603C361.409 516.506 362.396 516.401 363.388 516.288L363.219 514.798C362.233 514.909 361.254 515.014 360.28 515.111L360.428 516.603ZM366.325 515.934C367.31 515.809 368.3 515.676 369.296 515.536L369.087 514.051C368.098 514.19 367.114 514.322 366.136 514.446L366.325 515.934ZM372.299 515.093C373.305 514.938 374.317 514.776 375.335 514.605L375.087 513.126C374.076 513.295 373.07 513.457 372.07 513.611L372.299 515.093ZM378.404 514.072C378.918 513.979 379.434 513.885 379.951 513.788L379.676 512.314C379.162 512.41 378.649 512.504 378.138 512.596L378.404 514.072ZM379.951 513.788C380.449 513.695 380.946 513.602 381.443 513.508L381.164 512.034C380.669 512.128 380.173 512.221 379.676 512.314L379.951 513.788ZM384.414 512.938C385.402 512.746 386.387 512.553 387.369 512.357L387.076 510.886C386.096 511.081 385.113 511.274 384.128 511.466L384.414 512.938ZM390.309 511.764C391.286 511.565 392.261 511.363 393.233 511.16L392.926 509.692C391.956 509.895 390.984 510.096 390.009 510.295L390.309 511.764ZM396.141 510.544C397.108 510.337 398.072 510.128 399.034 509.917L398.712 508.452C397.753 508.662 396.791 508.871 395.827 509.077L396.141 510.544ZM401.993 509.259C402.977 509.038 403.958 508.815 404.937 508.59L404.6 507.128C403.624 507.353 402.646 507.575 401.664 507.796L401.993 509.259ZM407.863 507.909C408.836 507.68 409.806 507.449 410.773 507.216L410.422 505.757C409.457 505.99 408.49 506.22 407.519 506.449L407.863 507.909ZM413.666 506.511C414.628 506.274 415.587 506.035 416.543 505.794L416.176 504.34C415.223 504.58 414.266 504.818 413.307 505.054L413.666 506.511ZM419.458 505.052C420.436 504.8 421.411 504.546 422.383 504.29L422.001 502.839C421.032 503.095 420.06 503.348 419.084 503.599L419.458 505.052ZM425.291 503.516C426.257 503.256 427.22 502.994 428.18 502.73L427.783 501.284C426.825 501.547 425.864 501.809 424.901 502.068L425.291 503.516ZM431.052 501.932C432.007 501.664 432.958 501.394 433.907 501.122L433.493 499.681C432.547 499.952 431.599 500.221 430.647 500.488L431.052 501.932ZM436.787 500.288C437.757 500.004 438.723 499.718 439.687 499.43L439.257 497.993C438.296 498.28 437.332 498.565 436.365 498.848L436.787 500.288ZM442.568 498.559C443.525 498.267 444.48 497.973 445.431 497.676L444.984 496.244C444.036 496.54 443.085 496.833 442.13 497.125L442.568 498.559ZM448.275 496.781C449.219 496.481 450.161 496.178 451.1 495.874L450.637 494.447C449.701 494.751 448.762 495.052 447.82 495.352L448.275 496.781ZM453.952 494.939C454.911 494.622 455.867 494.302 456.819 493.981L456.339 492.559C455.389 492.88 454.436 493.199 453.48 493.515L453.952 494.939ZM459.667 493.009C460.613 492.683 461.555 492.355 462.495 492.025L461.997 490.61C461.061 490.939 460.121 491.266 459.178 491.591L459.667 493.009ZM465.303 491.029C466.236 490.695 467.165 490.358 468.091 490.02L467.576 488.611C466.653 488.948 465.727 489.283 464.797 489.617L465.303 491.029ZM470.92 488.976C471.866 488.624 472.808 488.269 473.747 487.913L473.214 486.511C472.278 486.866 471.339 487.219 470.396 487.571L470.92 488.976ZM476.553 486.836C477.484 486.475 478.413 486.112 479.338 485.747L478.787 484.352C477.865 484.716 476.94 485.078 476.011 485.438L476.553 486.836ZM482.101 484.645C483.022 484.275 483.94 483.902 484.854 483.527L484.284 482.14C483.374 482.513 482.459 482.885 481.541 483.254L482.101 484.645ZM487.653 482.368C488.582 481.979 489.508 481.589 490.43 481.196L489.842 479.816C488.923 480.207 488.001 480.597 487.074 480.984L487.653 482.368ZM493.185 480.01C494.1 479.613 495.01 479.214 495.918 478.812L495.31 477.441C494.406 477.841 493.499 478.239 492.587 478.635L493.185 480.01ZM498.628 477.601C499.544 477.188 500.456 476.773 501.364 476.355L500.738 474.992C499.833 475.408 498.924 475.822 498.011 476.234L498.628 477.601ZM504.105 475.084C505.015 474.658 505.921 474.229 506.823 473.799L506.176 472.445C505.278 472.874 504.375 473.301 503.469 473.725L504.105 475.084ZM509.516 472.501C510.41 472.066 511.3 471.629 512.186 471.19L511.52 469.846C510.638 470.283 509.751 470.719 508.86 471.152L509.516 472.501ZM514.856 469.855C515.759 469.399 516.657 468.94 517.552 468.48L516.866 467.146C515.974 467.605 515.079 468.061 514.18 468.516L514.856 469.855ZM520.224 467.092C521.11 466.627 521.992 466.16 522.87 465.691L522.163 464.368C521.288 464.836 520.41 465.301 519.527 465.764L520.224 467.092ZM525.492 464.277C526.364 463.802 527.232 463.325 528.097 462.845L527.369 461.533C526.508 462.011 525.643 462.486 524.774 462.96L525.492 464.277ZM530.74 461.365C531.616 460.869 532.488 460.371 533.356 459.871L532.607 458.571C531.743 459.069 530.874 459.565 530.001 460.059L530.74 461.365ZM535.946 458.364C536.805 457.859 537.66 457.353 538.51 456.844L537.739 455.557C536.893 456.063 536.042 456.568 535.186 457.07L535.946 458.364ZM541.052 455.307C541.917 454.78 542.776 454.25 543.632 453.718L542.839 452.444C541.988 452.974 541.132 453.501 540.271 454.027L541.052 455.307ZM546.183 452.116C547.029 451.579 547.87 451.041 548.707 450.5L547.892 449.24C547.06 449.779 546.222 450.315 545.38 450.849L546.183 452.116ZM551.203 448.871C552.034 448.323 552.86 447.773 553.681 447.221L552.845 445.976C552.027 446.526 551.204 447.073 550.377 447.618L551.203 448.871ZM556.187 445.521C557.017 444.952 557.842 444.381 558.663 443.808L557.803 442.578C556.987 443.149 556.165 443.717 555.339 444.284L556.187 445.521ZM561.109 442.081C561.919 441.503 562.725 440.923 563.526 440.341L562.644 439.128C561.847 439.707 561.045 440.284 560.238 440.859L561.109 442.081ZM565.937 438.57C566.749 437.968 567.556 437.363 568.357 436.757L567.452 435.561C566.654 436.164 565.852 436.766 565.044 437.365L565.937 438.57ZM570.746 434.93C571.536 434.319 572.322 433.706 573.103 433.091L572.174 431.913C571.398 432.525 570.616 433.135 569.829 433.743L570.746 434.93ZM575.429 431.238C576.214 430.607 576.993 429.973 577.767 429.338L576.815 428.178C576.045 428.811 575.27 429.441 574.489 430.07L575.429 431.238ZM580.089 427.41C580.857 426.766 581.62 426.119 582.378 425.47L581.402 424.331C580.648 424.977 579.889 425.62 579.125 426.261L580.089 427.41ZM584.633 423.517C585.383 422.86 586.128 422.202 586.867 421.541L585.867 420.423C585.132 421.08 584.392 421.735 583.646 422.388L584.633 423.517ZM589.112 419.512C589.854 418.834 590.591 418.153 591.322 417.471L590.298 416.375C589.571 417.053 588.838 417.73 588.1 418.405L589.112 419.512ZM593.498 415.416C594.217 414.729 594.931 414.04 595.639 413.349L594.591 412.275C593.887 412.963 593.177 413.648 592.462 414.331L593.498 415.416ZM597.784 411.23C598.497 410.518 599.204 409.804 599.905 409.087L598.833 408.038C598.136 408.75 597.433 409.461 596.724 410.169L597.784 411.23ZM601.99 406.931C602.679 406.21 603.362 405.487 604.038 404.763L602.942 403.739C602.269 404.46 601.59 405.178 600.905 405.895L601.99 406.931ZM606.071 402.56C606.751 401.814 607.425 401.066 608.092 400.316L606.971 399.319C606.308 400.064 605.638 400.808 604.963 401.549L606.071 402.56ZM610.075 398.059C610.73 397.305 611.378 396.549 612.02 395.791L610.876 394.821C610.238 395.575 609.593 396.326 608.943 397.076L610.075 398.059ZM613.936 393.499C614.579 392.72 615.216 391.939 615.846 391.156L614.677 390.216C614.051 390.994 613.419 391.77 612.779 392.544L613.936 393.499ZM617.716 388.801C618.332 388.014 618.942 387.225 619.546 386.434L618.353 385.524C617.754 386.31 617.148 387.094 616.535 387.876L617.716 388.801ZM621.339 384.052C621.941 383.241 622.537 382.427 623.125 381.612L621.909 380.734C621.325 381.544 620.733 382.352 620.135 383.158L621.339 384.052ZM624.87 379.161C625.445 378.342 626.013 377.521 626.574 376.699L625.334 375.854C624.777 376.671 624.213 377.486 623.642 378.299L624.87 379.161ZM628.236 374.224C628.794 373.382 629.344 372.538 629.888 371.692L628.625 370.881C628.086 371.721 627.539 372.559 626.986 373.396L628.236 374.224ZM631.496 369.148C632.024 368.299 632.546 367.447 633.06 366.594L631.776 365.82C631.265 366.667 630.747 367.512 630.222 368.356L631.496 369.148ZM634.583 364.027C635.092 363.156 635.594 362.282 636.088 361.407L634.781 360.67C634.291 361.539 633.793 362.406 633.288 363.271L634.583 364.027ZM637.547 358.777C638.026 357.898 638.497 357.018 638.961 356.136L637.634 355.438C637.173 356.313 636.705 357.186 636.23 358.058L637.547 358.777ZM640.334 353.48C640.791 352.58 641.239 351.68 641.68 350.777L640.332 350.119C639.895 351.014 639.45 351.908 638.997 352.801L640.334 353.48ZM642.979 348.066C643.405 347.161 643.822 346.254 644.232 345.346L642.865 344.729C642.458 345.63 642.044 346.53 641.622 347.428L642.979 348.066ZM645.444 342.604C645.844 341.68 646.236 340.754 646.62 339.827L645.234 339.253C644.853 340.173 644.464 341.091 644.067 342.008L645.444 342.604ZM647.748 337.043C648.116 336.113 648.476 335.182 648.828 334.25L647.425 333.72C647.076 334.644 646.718 335.568 646.353 336.49L647.748 337.043ZM649.867 331.431C650.207 330.485 650.539 329.537 650.863 328.588L649.444 328.104C649.122 329.045 648.793 329.985 648.456 330.923L649.867 331.431ZM651.81 325.739C652.118 324.788 652.417 323.836 652.708 322.882L651.274 322.444C650.985 323.39 650.688 324.334 650.383 325.277L651.81 325.739ZM653.564 319.996C653.841 319.031 654.11 318.065 654.371 317.098L652.923 316.707C652.664 317.667 652.397 318.625 652.122 319.582L653.564 319.996ZM655.128 314.193C655.372 313.224 655.608 312.253 655.835 311.281L654.375 310.94C654.149 311.903 653.916 312.866 653.673 313.827L655.128 314.193ZM656.497 308.343C656.709 307.363 656.913 306.381 657.108 305.399L655.637 305.107C655.443 306.081 655.241 307.054 655.031 308.026L656.497 308.343ZM657.667 302.451C657.846 301.465 658.016 300.479 658.177 299.492L656.697 299.25C656.537 300.228 656.368 301.207 656.191 302.184L657.667 302.451ZM658.637 296.519C658.782 295.527 658.918 294.535 659.045 293.542L657.557 293.351C657.431 294.335 657.296 295.319 657.153 296.302L658.637 296.519ZM659.402 290.562C659.512 289.565 659.614 288.568 659.707 287.571L658.214 287.432C658.121 288.42 658.02 289.408 657.911 290.396L659.402 290.562ZM659.961 284.576C660.036 283.577 660.104 282.577 660.162 281.578L658.665 281.49C658.607 282.481 658.54 283.472 658.465 284.462L659.961 284.576ZM660.312 278.578C660.353 277.577 660.385 276.576 660.409 275.574L658.909 275.539C658.886 276.532 658.854 277.524 658.813 278.516L660.312 278.578ZM660.454 272.57C660.461 271.568 660.458 270.566 660.447 269.564L658.947 269.581C658.958 270.574 658.96 271.567 658.954 272.56L660.454 272.57ZM660.388 266.56C660.359 265.56 660.322 264.559 660.276 263.559L658.778 263.628C658.823 264.619 658.86 265.611 658.888 266.603L660.388 266.56ZM660.113 260.558C660.05 259.558 659.978 258.558 659.897 257.558L658.402 257.678C658.482 258.669 658.553 259.661 658.616 260.653L660.113 260.558ZM659.63 254.568C659.533 253.573 659.427 252.577 659.312 251.582L657.822 251.754C657.935 252.741 658.041 253.727 658.137 254.714L659.63 254.568ZM658.942 248.598C658.81 247.605 658.669 246.612 658.52 245.619L657.037 245.842C657.185 246.826 657.324 247.81 657.455 248.795L658.942 248.598ZM658.049 242.658C657.884 241.672 657.71 240.685 657.528 239.7L656.053 239.973C656.234 240.95 656.406 241.928 656.57 242.906L658.049 242.658ZM656.955 236.745C656.855 236.253 656.753 235.76 656.649 235.269L655.182 235.579C655.285 236.067 655.386 236.555 655.485 237.043L656.955 236.745ZM656.649 235.269C656.543 234.768 656.435 234.27 656.324 233.774L654.86 234.101C654.97 234.591 655.077 235.084 655.182 235.579L656.649 235.269ZM655.632 230.826C655.392 229.853 655.143 228.888 654.884 227.933L653.436 228.325C653.692 229.269 653.939 230.223 654.176 231.185L655.632 230.826ZM654.061 225.024C653.773 224.052 653.477 223.091 653.17 222.139L651.742 222.598C652.045 223.539 652.338 224.489 652.622 225.449L654.061 225.024ZM652.224 219.311C651.889 218.348 651.544 217.395 651.189 216.452L649.785 216.98C650.135 217.911 650.476 218.853 650.807 219.804L652.224 219.311ZM650.096 213.65C649.719 212.716 649.332 211.793 648.935 210.879L647.559 211.476C647.951 212.378 648.333 213.29 648.706 214.212L650.096 213.65ZM647.695 208.117C647.272 207.206 646.839 206.306 646.398 205.416L645.054 206.082C645.49 206.961 645.917 207.85 646.334 208.749L647.695 208.117ZM645.018 202.722C644.547 201.83 644.066 200.948 643.576 200.077L642.268 200.812C642.752 201.672 643.227 202.543 643.692 203.423L645.018 202.722ZM642.068 197.477C641.549 196.607 641.02 195.749 640.483 194.9L639.216 195.703C639.746 196.54 640.268 197.388 640.78 198.246L642.068 197.477ZM638.844 192.387C638.28 191.546 637.707 190.716 637.126 189.897L635.902 190.765C636.476 191.574 637.042 192.393 637.599 193.223L638.844 192.387ZM635.351 187.465C634.747 186.658 634.134 185.863 633.513 185.078L632.337 186.008C632.949 186.783 633.554 187.568 634.151 188.364L635.351 187.465ZM631.61 182.735C630.966 181.964 630.315 181.203 629.656 180.453L628.529 181.443C629.18 182.183 629.823 182.934 630.458 183.696L631.61 182.735ZM627.632 178.207C626.95 177.469 626.261 176.742 625.564 176.026L624.489 177.071C625.177 177.779 625.857 178.497 626.531 179.225L627.632 178.207ZM623.433 173.887C622.714 173.183 621.989 172.49 621.256 171.807L620.233 172.904C620.957 173.578 621.674 174.263 622.384 174.958L623.433 173.887ZM619.028 169.779C618.275 169.11 617.516 168.451 616.751 167.804L615.782 168.948C616.538 169.588 617.288 170.239 618.032 170.9L619.028 169.779ZM614.434 165.886C613.65 165.252 612.861 164.629 612.066 164.017L611.15 165.204C611.936 165.81 612.716 166.426 613.491 167.052L614.434 165.886ZM609.667 162.208C608.855 161.61 608.038 161.023 607.217 160.445L606.354 161.672C607.166 162.244 607.974 162.825 608.777 163.416L609.667 162.208ZM604.74 158.742C603.904 158.181 603.063 157.629 602.219 157.087L601.409 158.349C602.244 158.886 603.076 159.432 603.903 159.987L604.74 158.742ZM599.672 155.488C598.814 154.962 597.953 154.445 597.089 153.938L596.33 155.232C597.186 155.734 598.038 156.245 598.887 156.766L599.672 155.488ZM594.479 152.441C593.602 151.949 592.723 151.467 591.841 150.994L591.132 152.316C592.006 152.784 592.877 153.262 593.745 153.749L594.479 152.441ZM589.175 149.595C588.281 149.137 587.385 148.688 586.488 148.249L585.828 149.595C586.717 150.031 587.605 150.476 588.49 150.93L589.175 149.595ZM583.771 146.946C582.863 146.52 581.953 146.104 581.043 145.696L580.43 147.065C581.332 147.469 582.234 147.882 583.135 148.304L583.771 146.946ZM578.281 144.486C577.359 144.092 576.437 143.706 575.516 143.329L574.948 144.718C575.862 145.091 576.776 145.474 577.69 145.865L578.281 144.486ZM572.713 142.209C571.779 141.844 570.846 141.488 569.915 141.141L569.391 142.547C570.315 142.891 571.241 143.244 572.167 143.606L572.713 142.209ZM567.077 140.108C566.133 139.772 565.19 139.445 564.25 139.126L563.768 140.546C564.701 140.863 565.637 141.188 566.575 141.521L567.077 140.108ZM561.383 138.176C560.429 137.868 559.478 137.568 558.53 137.277L558.089 138.71C559.03 139 559.974 139.298 560.922 139.604L561.383 138.176ZM555.636 136.408C554.674 136.127 553.716 135.854 552.764 135.589L552.362 137.034C553.308 137.297 554.259 137.568 555.215 137.848L555.636 136.408ZM549.844 134.797C548.873 134.541 547.908 134.293 546.95 134.053L546.586 135.509C547.538 135.747 548.497 135.993 549.461 136.248L549.844 134.797ZM544.013 133.339C543.033 133.106 542.06 132.882 541.095 132.667L540.768 134.131C541.726 134.345 542.693 134.567 543.668 134.798L544.013 133.339ZM538.151 132.027C537.159 131.818 536.178 131.617 535.207 131.424L534.915 132.896C535.88 133.087 536.856 133.287 537.842 133.495L538.151 132.027ZM532.268 130.859C531.263 130.672 530.271 130.493 529.294 130.323L529.036 131.8C530.008 131.97 530.994 132.147 531.993 132.333L532.268 130.859ZM526.35 129.827C525.339 129.663 524.346 129.507 523.371 129.36L523.147 130.843C524.116 130.989 525.104 131.144 526.109 131.307L526.35 129.827ZM520.388 128.926C519.378 128.785 518.391 128.653 517.428 128.53L517.237 130.018C518.194 130.141 519.176 130.272 520.18 130.412L520.388 128.926ZM514.451 128.164C513.415 128.042 512.412 127.93 511.446 127.827L511.287 129.319C512.248 129.421 513.245 129.532 514.276 129.653L514.451 128.164ZM508.45 127.524C507.955 127.477 507.471 127.431 507 127.389L506.864 128.883C507.333 128.925 507.814 128.97 508.307 129.017L508.45 127.524Z" fill="url(#paint6_linear_617_1090)"/>
<rect id="popup" class="popup" x="246.085" y="80.339" width="241.017" height="83.3898" rx="8" fill="#F6D36C"/>
<rect id="bar-04" class="bar-04" x="525.746" y="301.017" width="95.5932" height="33.5593" rx="4" fill="#4DCBD3"/>
<rect id="bar-03" class="bar-03" x="324.39" y="241.017" width="129.153" height="21.3559" rx="4" fill="#E9E9EA"/>
<rect id="bar-02" class="bar-02" x="324.39" y="202.373" width="241.017" height="21.3559" rx="4" fill="#E9E9EA"/>
<rect id="bar-01" class="bar-01" x="324.39" y="36.6102" width="241.017" height="21.3559" rx="4" fill="#4DCBD3"/>
</g>
<path id="Vector_15" d="M575.128 423.149C575.128 423.149 580.287 422.58 585.644 429.419C585.644 429.419 586.403 421.709 595.129 418.951C595.129 418.951 589.762 412.114 585.581 412.378C585.579 412.368 578.184 412.585 575.128 423.149Z" fill="#FCFCFC"/>
<path id="Vector_16" d="M642.937 189.119C642.937 189.119 642.982 194.309 635.636 198.947C635.636 198.947 643.229 200.482 645.091 209.442C645.091 209.442 652.436 204.793 652.596 200.607C652.606 200.607 653.138 193.227 642.937 189.119Z" fill="#FCFCFC"/>
</g>
<defs>
<filter id="filter0_d_617_1090" x="181.402" y="419.268" width="73.3627" height="53.1938" filterUnits="userSpaceOnUse" color-interpolation-filters="sRGB">
<feFlood flood-opacity="0" result="BackgroundImageFix"/>
<feColorMatrix in="SourceAlpha" type="matrix" values="0 0 0 0 0 0 0 0 0 0 0 0 0 0 0 0 0 0 127 0" result="hardAlpha"/>
<feOffset dx="5" dy="4"/>
<feGaussianBlur stdDeviation="4"/>
<feColorMatrix type="matrix" values="0 0 0 0 0.675 0 0 0 0 0.524587 0 0 0 0 0.137812 0 0 0 0.1 0"/>
<feBlend mode="normal" in2="BackgroundImageFix" result="effect1_dropShadow_617_1090"/>
<feBlend mode="normal" in="SourceGraphic" in2="effect1_dropShadow_617_1090" result="shape"/>
</filter>
<filter id="filter1_d_617_1090" x="212.633" y="421.788" width="43.9534" height="49.6654" filterUnits="userSpaceOnUse" color-interpolation-filters="sRGB">
<feFlood flood-opacity="0" result="BackgroundImageFix"/>
<feColorMatrix in="SourceAlpha" type="matrix" values="0 0 0 0 0 0 0 0 0 0 0 0 0 0 0 0 0 0 127 0" result="hardAlpha"/>
<feOffset dx="-2" dy="5"/>
<feGaussianBlur stdDeviation="3"/>
<feColorMatrix type="matrix" values="0 0 0 0 0.5 0 0 0 0 0.380417 0 0 0 0 0.0729167 0 0 0 0.1 0"/>
<feBlend mode="normal" in2="BackgroundImageFix" result="effect1_dropShadow_617_1090"/>
<feBlend mode="normal" in="SourceGraphic" in2="effect1_dropShadow_617_1090" result="shape"/>
</filter>
<filter id="filter2_d_617_1090" x="176.734" y="409.529" width="88.0703" height="64.5405" filterUnits="userSpaceOnUse" color-interpolation-filters="sRGB">
<feFlood flood-opacity="0" result="BackgroundImageFix"/>
<feColorMatrix in="SourceAlpha" type="matrix" values="0 0 0 0 0 0 0 0 0 0 0 0 0 0 0 0 0 0 127 0" result="hardAlpha"/>
<feOffset dx="-4" dy="-6"/>
<feGaussianBlur stdDeviation="4"/>
<feColorMatrix type="matrix" values="0 0 0 0 0.479167 0 0 0 0 0.362889 0 0 0 0 0.0638889 0 0 0 0.15 0"/>
<feBlend mode="normal" in2="BackgroundImageFix" result="effect1_dropShadow_617_1090"/>
<feBlend mode="normal" in="SourceGraphic" in2="effect1_dropShadow_617_1090" result="shape"/>
</filter>
<linearGradient id="paint0_linear_617_1090" x1="392.051" y1="400.678" x2="391.574" y2="540" gradientUnits="userSpaceOnUse">
<stop offset="0.137749" stop-color="#D1D4DB"/>
<stop offset="0.620358" stop-color="#E6E8EB"/>
<stop offset="0.860326" stop-color="#F5F6F7"/>
</linearGradient>
<linearGradient id="paint1_linear_617_1090" x1="231.68" y1="457.543" x2="181.961" y2="374.142" gradientUnits="userSpaceOnUse">
<stop stop-color="#4DCBD3"/>
<stop offset="1" stop-color="#4DCBD3" stop-opacity="0"/>
</linearGradient>
<linearGradient id="paint2_linear_617_1090" x1="201.991" y1="408.027" x2="234.133" y2="461.733" gradientUnits="userSpaceOnUse">
<stop offset="0.0112" stop-color="#FFDD76"/>
<stop offset="1" stop-color="#E8AE46"/>
</linearGradient>
<linearGradient id="paint3_linear_617_1090" x1="224.481" y1="445.418" x2="245.664" y2="480.254" gradientUnits="userSpaceOnUse">
<stop offset="0.0112" stop-color="#E8AE46"/>
<stop offset="1" stop-color="#E8AE46" stop-opacity="0"/>
</linearGradient>
<linearGradient id="paint4_linear_617_1090" x1="178.458" y1="358.983" x2="166.254" y2="332.542" gradientUnits="userSpaceOnUse">
<stop stop-color="#FCFCFC"/>
<stop offset="1" stop-color="#FCFCFC" stop-opacity="0.6"/>
</linearGradient>
<linearGradient id="paint5_linear_617_1090" x1="56.9322" y1="255.254" x2="38.1187" y2="269.492" gradientUnits="userSpaceOnUse">
<stop stop-color="#FCFCFC"/>
<stop offset="1" stop-color="#FCFCFC" stop-opacity="0.5"/>
</linearGradient>
<linearGradient id="paint6_linear_617_1090" x1="607.61" y1="248.136" x2="30.4915" y2="381.356" gradientUnits="userSpaceOnUse">
<stop stop-color="#4DCBD3"/>
<stop offset="1" stop-color="#4DCBD3" stop-opacity="0"/>
</linearGradient>
</defs>
</svg>
